<svg xmlns="http://www.w3.org/2000/svg" viewBox="0 0 630 630" role="img" aria-label="JavaScript logo">
  <rect width="630" height="630" fill="#fff" rx="18" ry="18" />
  <path
    d="M423.2 492.19c12.69 20.72 29.2 35.98 58.39 35.98 24.55 0 40.24-12.27 40.24-29.2 0-20.29-16.11-27.48-43.13-39.33l-14.83-6.35c-42.78-18.24-71.2-41.1-71.2-89.34 0-44.47 33.88-78.31 86.82-78.31 37.71 0 64.79 13.11 84.28 47.43l-46.18 29.64c-10.16-18.24-21.15-25.39-38.1-25.39-17.35 0-28.34 11-28.34 25.39 0 17.79 11 25.01 36.37 36.37l14.83 6.35c50.38 21.58 78.8 43.56 78.8 93.17 0 53.42-42.01 82.64-98.29 82.64-55.03 0-90.58-26.2-107.97-60.52zm-208.62 5.14c9.31 16.51 17.79 30.47 38.1 30.47 19.44 0 31.71-7.61 31.71-37.28V289.02h58.83v202.3c0 61.36-35.98 89.31-88.54 89.31-47.43 0-74.92-24.55-88.97-54.2z"
    fill="#000"
  />
</svg>
