<svg
  xmlns="http://www.w3.org/2000/svg"
  viewBox="0 0 630 630"
  preserveAspectRatio="xMidYMid meet"
  role="img"
  aria-labelledby="title desc"
>
  <title id="title">js2 squaring the circle logo</title>
  <desc id="desc">
    Black js2 logo with white puzzle-like internal contour lines and a white 2 in the upper right.
  </desc>
  <path d="M0 0H241A74 74 0 0 0 389 0H630V630H0Z" fill="#000000" />
  <g fill="none" stroke="#ffffff" stroke-width="14" stroke-linejoin="round" stroke-linecap="round">
    <g transform="translate(0 0) scale(0.5)">
      <g transform="rotate(90 315 315)">
        <path d="M0 0H241A74 74 0 0 0 389 0H630V630H0Z" />
      </g>
    </g>
    <g transform="translate(315 0) scale(0.5)">
      <g transform="rotate(180 315 315)">
        <path d="M0 0H241A74 74 0 0 0 389 0H630V630H0Z" />
      </g>
    </g>
    <g transform="translate(0 315) scale(0.5)">
      <path d="M0 0H241A74 74 0 0 0 389 0H630V630H0Z" />
    </g>
    <g transform="translate(315 315) scale(0.5)">
      <g transform="rotate(270 315 315)">
        <path d="M0 0H241A74 74 0 0 0 389 0H630V630H0Z" />
      </g>
    </g>
  </g>
  <g fill="none" stroke="#000000" stroke-width="9.2" stroke-linecap="round">
    <path d="M315 128.5V186.5" />
    <path d="M315 443.5V501.5" />
    <path d="M128.5 315H186.5" />
    <path d="M443.5 315H501.5" />
  </g>
  <g
    fill="#ffffff"
    stroke="#000000"
    stroke-width="9.75238"
    stroke-linejoin="round"
    paint-order="stroke fill"
    transform="translate(72 520)"
  >
    <g transform="scale(1.3125)">
      <path d="M 124.671875 -57.601562 L 124.671875 -182.785156 L 84.480469 -182.785156 L 84.480469 -59.390625 C 84.480469 -56.148438 84.351562 -52.777344 84.097656 -49.28125 C 83.839844 -45.78125 83.070312 -42.539062 81.792969 -39.550781 C 80.511719 -36.566406 78.421875 -34.132812 75.519531 -32.257812 C 72.617188 -30.378906 68.523438 -29.441406 63.230469 -29.441406 C 58.453125 -29.441406 54.570312 -30.207031 51.585938 -31.742188 C 48.597656 -33.28125 46.25 -35.371094 44.542969 -38.015625 C 42.835938 -40.660156 41.644531 -43.863281 40.960938 -47.617188 C 40.277344 -51.371094 39.9375 -55.464844 39.9375 -59.902344 L 39.9375 -68.097656 L 3.585938 -68.097656 L 3.585938 -52.222656 C 3.585938 -42.15625 5.289062 -33.578125 8.703125 -26.496094 C 12.117188 -19.414062 16.640625 -13.609375 22.273438 -9.089844 C 27.902344 -4.566406 34.304688 -1.238281 41.472656 0.894531 C 48.640625 3.03125 56.0625 4.097656 63.742188 4.097656 C 77.398438 4.097656 88.234375 2.003906 96.257812 -2.175781 C 104.277344 -6.355469 110.421875 -11.5625 114.6875 -17.792969 C 118.953125 -24.019531 121.683594 -30.71875 122.878906 -37.886719 C 124.074219 -45.054219 124.671875 -51.625 124.671875 -57.601562 Z M 124.671875 -57.601562 " />
      <path d="M 45.054688 -60.671875 L 6.144531 -60.671875 C 5.972656 -49.40625 8.019531 -39.679688 12.289062 -31.488281 C 16.554688 -23.296875 22.316406 -16.554688 29.566406 -11.265625 C 36.820312 -5.972656 45.183594 -2.089844 54.65625 0.382812 C 64.128906 2.859375 73.898438 4.097656 83.96875 4.097656 C 96.425781 4.097656 107.390625 2.644531 116.863281 -0.257812 C 126.335938 -3.15625 134.273438 -7.210938 140.671875 -12.414062 C 147.070312 -17.621094 151.894531 -23.808594 155.136719 -30.976562 C 158.378906 -38.144531 160 -45.910156 160 -54.273438 C 160 -64.511719 157.824219 -72.917969 153.472656 -79.488281 C 149.121094 -86.058594 143.957031 -91.308594 137.984375 -95.230469 C 132.011719 -99.15625 125.996094 -102.015625 119.9375 -103.808594 C 113.878906 -105.601562 109.140625 -106.835938 105.726562 -107.519531 C 94.292969 -110.421875 85.035156 -112.8125 77.953125 -114.6875 C 70.871094 -116.566406 65.324219 -118.441406 61.3125 -120.320312 C 57.300781 -122.199219 54.613281 -124.246094 53.246094 -126.464844 C 51.882812 -128.683594 51.199219 -131.585938 51.199219 -135.167969 C 51.199219 -139.09375 52.054688 -142.335938 53.761719 -144.894531 C 55.464844 -147.457031 57.644531 -149.589844 60.289062 -151.296875 C 62.933594 -153.003906 65.878906 -154.199219 69.121094 -154.878906 C 72.363281 -155.5625 75.605469 -155.902344 78.847656 -155.902344 C 83.796875 -155.902344 88.363281 -155.476562 92.542969 -154.625 C 96.726562 -153.769531 100.4375 -152.320312 103.679688 -150.273438 C 106.921875 -148.222656 109.523438 -145.40625 111.488281 -141.824219 C 113.449219 -138.238281 114.601562 -133.71875 114.945312 -128.257812 L 153.855469 -128.257812 C 153.855469 -138.835938 151.851562 -147.839844 147.839844 -155.265625 C 143.828125 -162.6875 138.410156 -168.789062 131.585938 -173.566406 C 124.757812 -178.347656 116.949219 -181.800781 108.160156 -183.9375 C 99.371094 -186.070312 90.199219 -187.136719 80.640625 -187.136719 C 72.449219 -187.136719 64.257812 -186.027344 56.0625 -183.808594 C 47.871094 -181.589844 40.535156 -178.175781 34.046875 -173.566406 C 27.5625 -168.960938 22.316406 -163.199219 18.304688 -156.289062 C 14.292969 -149.375 12.289062 -141.226562 12.289062 -131.839844 C 12.289062 -123.476562 13.867188 -116.351562 17.023438 -110.464844 C 20.179688 -104.574219 24.320312 -99.667969 29.441406 -95.742188 C 34.558594 -91.820312 40.363281 -88.617188 46.847656 -86.144531 C 53.332031 -83.667969 59.988281 -81.578125 66.816406 -79.871094 C 73.472656 -77.996094 80.042969 -76.289062 86.527344 -74.753906 C 93.011719 -73.214844 98.816406 -71.425781 103.9375 -69.375 C 109.054688 -67.328125 113.195312 -64.769531 116.351562 -61.695312 C 119.507812 -58.625 121.089844 -54.613281 121.089844 -49.664062 C 121.089844 -45.054688 119.894531 -41.257812 117.503906 -38.273438 C 115.113281 -35.285156 112.128906 -32.9375 108.542969 -31.230469 C 104.960938 -29.523438 101.121094 -28.375 97.023438 -27.777344 C 92.929688 -27.179688 89.089844 -26.878906 85.503906 -26.878906 C 80.214844 -26.878906 75.09375 -27.519531 70.144531 -28.800781 C 65.195312 -30.078125 60.886719 -32.042969 57.214844 -34.6875 C 53.546875 -37.332031 50.601562 -40.789062 48.382812 -45.054688 C 46.164062 -49.324219 45.054688 -54.527344 45.054688 -60.671875 Z M 45.054688 -60.671875 " transform="translate(131.661458 0)" />
    </g>
  </g>
  <g
    fill="#ffffff"
    stroke="#000000"
    stroke-width="15.60476"
    stroke-linejoin="round"
    paint-order="stroke fill"
    transform="translate(448 230)"
  >
    <g transform="scale(0.8203125)">
      <path d="M 9.472656 -110.335938 L 44.289062 -110.335938 C 44.289062 -115.113281 44.757812 -119.9375 45.695312 -124.800781 C 46.632812 -129.664062 48.214844 -134.101562 50.433594 -138.113281 C 52.652344 -142.121094 55.59375 -145.367188 59.265625 -147.839844 C 62.933594 -150.316406 67.414062 -151.550781 72.703125 -151.550781 C 80.554688 -151.550781 86.996094 -149.121094 92.03125 -144.257812 C 97.066406 -139.390625 99.585938 -132.609375 99.585938 -123.902344 C 99.585938 -118.441406 98.347656 -113.578125 95.871094 -109.3125 C 93.398438 -105.046875 90.324219 -101.207031 86.65625 -97.792969 C 82.988281 -94.378906 78.933594 -91.265625 74.496094 -88.449219 C 70.058594 -85.632812 65.878906 -82.859375 61.953125 -80.128906 C 54.273438 -74.835938 46.976562 -69.632812 40.0625 -64.511719 C 33.152344 -59.390625 27.136719 -53.800781 22.015625 -47.742188 C 16.894531 -41.683594 12.84375 -34.816406 9.855469 -27.136719 C 6.871094 -19.457031 5.375 -10.410156 5.375 0 L 136.960938 0 L 136.960938 -31.230469 L 52.222656 -31.230469 C 56.660156 -37.375 61.78125 -42.753906 67.585938 -47.359375 C 73.386719 -51.96875 79.359375 -56.277344 85.503906 -60.289062 C 91.648438 -64.296875 97.75 -68.351562 103.808594 -72.449219 C 109.867188 -76.542969 115.285156 -81.109375 120.0625 -86.144531 C 124.84375 -91.179688 128.683594 -96.9375 131.585938 -103.425781 C 134.484375 -109.910156 135.9375 -117.675781 135.9375 -126.71875 C 135.9375 -135.425781 134.273438 -143.273438 130.945312 -150.273438 C 127.617188 -157.269531 123.136719 -163.15625 117.503906 -167.9375 C 111.871094 -172.714844 105.34375 -176.382812 97.921875 -178.945312 C 90.496094 -181.503906 82.6875 -182.785156 74.496094 -182.785156 C 63.742188 -182.785156 54.230469 -180.949219 45.953125 -177.28125 C 37.675781 -173.609375 30.804688 -168.492188 25.34375 -161.921875 C 19.882812 -155.347656 15.785156 -147.667969 13.054688 -138.878906 C 10.324219 -130.089844 9.128906 -120.574219 9.472656 -110.335938 Z M 9.472656 -110.335938 " />
    </g>
  </g>
</svg>
