<svg xmlns="http://www.w3.org/2000/svg" viewBox="0 0 123 100" fill="none">
  <path
    d="M96.7088 81.9028L95.6831 82.9285C90.9396 87.6721 85.2985 91.39 79.1447 93.8259L120.94 93.8259L120.94 81.9028L96.7088 81.9028Z"
    fill="#ffffff"
  />
  <path
    d="M61.5806 3.82593C36.7088 3.82593 16.5806 23.9541 16.5806 48.8259C16.5806 60.4926 20.9396 71.0054 28.2473 79.0823L48.119 79.0823C36.5806 73.9541 28.5037 62.2875 28.5037 48.8259C28.5037 30.6208 43.3755 15.749 61.5806 15.749C79.7857 15.749 94.6575 30.6208 94.6575 48.8259C94.6575 67.0311 79.7857 81.9028 61.5806 81.9028L2.22161 81.9028L2.22161 93.8259L61.5806 93.8259C86.4524 93.8259 106.581 73.6977 106.581 48.8259C106.581 23.9541 86.4524 3.82593 61.5806 3.82593Z"
    fill="#ffffff"
  />
</svg>
